<?xml version="1.0" encoding="iso-8859-1"?>
<!-- Generator: Adobe Illustrator 16.0.0, SVG Export Plug-In . SVG Version: 6.00 Build 0)  -->
<!DOCTYPE svg PUBLIC "-//W3C//DTD SVG 1.1//EN" "http://www.w3.org/Graphics/SVG/1.1/DTD/svg11.dtd">
<svg version="1.1" id="Capa_1" xmlns="http://www.w3.org/2000/svg" xmlns:xlink="http://www.w3.org/1999/xlink" x="0px" y="0px"
	 width="430.885px" height="430.885px" viewBox="0 0 430.885 430.885" style="enable-background:new 0 0 430.885 430.885;"
	 xml:space="preserve">
<g>
	<path d="M430.505,155.421c-0.724-2.552-2.432-4.711-4.747-6.004l-74.819-41.748V62.228c0-5.522-4.478-10-10-10h-34.925
		c-5.522,0-10,4.478-10,10v14.795l-75.699-42.238c-3.028-1.688-6.717-1.688-9.745,0L5.128,149.417
		c-2.316,1.293-4.024,3.45-4.748,6.004c-0.724,2.551-0.404,5.285,0.888,7.602l17.018,30.498c2.69,4.822,8.782,6.549,13.604,3.859
		l27.069-15.043v205.547c0,5.237,4.246,9.483,9.484,9.483h94.983c5.237,0,9.483-4.246,9.483-9.483v-91.984
		c0-2.678,2.179-4.856,4.857-4.856h75.352c2.679,0,4.856,2.18,4.856,4.856v91.984c0,5.237,4.246,9.483,9.483,9.483h94.985
		c5.237,0,9.483-4.246,9.483-9.483V182.337l27.068,15.043c4.823,2.69,10.914,0.963,13.605-3.859l17.018-30.498
		C430.911,160.706,431.23,157.971,430.505,155.421z"/>
</g>
<g>
</g>
<g>
</g>
<g>
</g>
<g>
</g>
<g>
</g>
<g>
</g>
<g>
</g>
<g>
</g>
<g>
</g>
<g>
</g>
<g>
</g>
<g>
</g>
<g>
</g>
<g>
</g>
<g>
</g>
</svg>
